<svg width="554" height="144" viewBox="0 0 554 144" fill="none" xmlns="http://www.w3.org/2000/svg">
<g clip-path="url(#clip0_4_2)">
<rect width="144" height="144" rx="72" fill="#222222"/>
<g filter="url(#filter0_d_4_2)">
<path d="M62.3346 104C67.4893 104 71.668 99.8213 71.668 94.6667C71.668 89.512 67.4893 85.3333 62.3346 85.3333C57.18 85.3333 53.0013 89.512 53.0013 94.6667C53.0013 99.8213 57.18 104 62.3346 104Z" stroke="white" stroke-width="7" stroke-linecap="round" stroke-linejoin="round"/>
<path d="M71.668 94.6667V48M71.668 48L90.3346 51.1111V63.5556L71.668 60.4444V48Z" stroke="white" stroke-width="7" stroke-linecap="round" stroke-linejoin="round"/>
</g>
<g filter="url(#filter1_d_4_2)">
<path d="M72 -31H-21.6V87.8333C-9.6608 87.0462 0.666401 84.8689 9.6 81.5978C49.952 66.8778 72 12.0867 72 -31Z" fill="url(#paint0_linear_4_2)"/>
<path d="M165.6 -31H72C72 12.0867 94.048 66.8778 134.4 81.5978C143.334 84.8689 153.661 87.0462 165.6 87.8333V-31Z" fill="url(#paint1_linear_4_2)"/>
<path d="M165.6 109.556V87.8333C153.661 87.0462 143.334 84.8689 134.4 81.5978C117.76 102.686 113.6 137.984 113.6 153H124C143.614 153 153.411 153 159.506 146.642C165.6 140.273 165.6 130.031 165.6 109.556Z" fill="url(#paint2_linear_4_2)"/>
<path d="M-21.6 87.8333V109.556C-21.6 130.031 -21.6 140.273 -15.5056 146.642C-9.4112 153 0.385597 153 20 153H30.4C30.4 137.984 26.24 102.686 9.6 81.5978C0.666401 84.8689 -9.6608 87.0462 -21.6 87.8333Z" fill="url(#paint3_linear_4_2)"/>
<path d="M176 -31H-32M-0.799997 81.4444C5.4192 74.2173 17.5768 54.8053 20 30.3333M144.8 81.4444C138.57 74.2173 126.423 54.8053 124 30.3333M-21.6 87.8333V-31H72M-21.6 87.8333V109.556C-21.6 130.031 -21.6 140.273 -15.5056 146.642C-9.4112 153 0.385599 153 20 153H30.4C30.4 137.984 26.24 102.686 9.6 81.5978M-21.6 87.8333C-9.6608 87.0462 0.666402 84.8689 9.6 81.5978M9.6 81.5978C49.952 66.8778 72 12.0867 72 -31M72 -31C72 12.0867 94.048 66.8778 134.4 81.5978M72 -31H165.6V87.8333M165.6 87.8333V109.556C165.6 130.031 165.6 140.273 159.506 146.642C153.411 153 143.614 153 124 153H113.6C113.6 137.984 117.76 102.686 134.4 81.5978M165.6 87.8333C153.661 87.0462 143.334 84.8689 134.4 81.5978" stroke="url(#paint4_linear_4_2)" stroke-width="6" stroke-linecap="round" stroke-linejoin="round"/>
</g>
</g>
<path d="M216.376 52.4489H203.716V97.0994C203.716 100.182 201.166 102.736 198.001 102.736C194.836 102.736 192.375 100.182 192.375 97.0994V52.4489H179.539C176.462 52.4489 174 49.7187 174 46.6364C174 43.554 176.462 41 179.539 41H216.376C219.541 41 222.002 43.554 222.002 46.6364C222.002 49.7187 219.541 52.4489 216.376 52.4489Z" fill="white"/>
<path d="M237.624 60.375C240.35 58.0852 244.042 56.7642 247.91 56.7642C259.252 56.7642 268.571 66.1875 268.571 77.5483V97.5398C268.571 100.358 266.285 102.824 263.472 102.824C260.57 102.824 258.197 100.358 258.197 97.5398V77.5483C258.197 71.8239 253.449 67.1562 247.91 67.1562C242.372 67.1562 237.624 71.8239 237.624 77.5483V97.5398C237.624 100.358 235.338 102.824 232.437 102.824C229.536 102.824 227.162 100.358 227.162 97.5398V46.2841C227.162 43.2898 229.536 41 232.437 41C235.338 41 237.624 43.4659 237.624 46.2841V60.375Z" fill="white"/>
<path d="M275.192 79.75C275.192 66.9801 285.39 56.7642 298.138 56.7642C309.391 56.7642 318.799 64.9545 320.469 75.7869C321.612 80.3665 320.117 83.5369 314.491 83.5369H286.357C287.852 88.5568 292.599 92.2557 298.138 92.2557C301.479 92.2557 304.556 90.8466 306.842 88.6449C307.985 87.5881 309.391 87.0597 310.71 87.0597C311.941 87.0597 313.26 87.5 314.315 88.6449C316.249 90.5824 316.249 93.929 314.315 96.0426C310.183 100.182 304.38 102.736 298.138 102.736C285.39 102.736 275.192 92.5199 275.192 79.75ZM309.743 76.1392C308.336 71.0313 303.677 67.1562 298.138 67.1562C292.599 67.1562 287.852 71.0313 286.357 76.1392H309.743Z" fill="white"/>
<path d="M327.082 74.9943C327.082 64.8665 335.17 56.7642 345.193 56.7642C350.292 56.7642 354.951 59.054 357.853 62.6648C361.194 59.054 365.677 56.7642 370.864 56.7642C380.799 56.7642 388.887 64.8665 388.887 74.9943V97.5398C388.887 100.358 386.601 102.736 383.788 102.736C380.799 102.736 378.337 100.358 378.337 97.5398V74.9943C378.337 70.679 374.996 67.1562 370.864 67.1562C366.644 67.1562 363.128 70.679 363.128 74.9943V97.5398C363.128 100.358 360.842 102.736 357.853 102.736C355.039 102.736 352.754 100.358 352.754 97.5398V74.9943C352.754 70.679 349.237 67.1562 345.193 67.1562C340.885 67.1562 337.456 70.679 337.456 74.9943V97.5398C337.456 100.358 335.17 102.736 332.269 102.736C329.456 102.736 327.082 100.358 327.082 97.5398V74.9943Z" fill="white"/>
<path d="M395.648 79.75C395.648 66.9801 405.846 56.7642 418.594 56.7642C429.847 56.7642 439.255 64.9545 440.925 75.7869C442.068 80.3665 440.573 83.5369 434.947 83.5369H406.813C408.308 88.5568 413.055 92.2557 418.594 92.2557C421.935 92.2557 425.012 90.8466 427.298 88.6449C428.441 87.5881 429.847 87.0597 431.166 87.0597C432.397 87.0597 433.716 87.5 434.771 88.6449C436.705 90.5824 436.705 93.929 434.771 96.0426C430.639 100.182 424.836 102.736 418.594 102.736C405.846 102.736 395.648 92.5199 395.648 79.75ZM430.199 76.1392C428.792 71.0313 424.133 67.1562 418.594 67.1562C413.055 67.1562 408.308 71.0313 406.813 76.1392H430.199Z" fill="white"/>
<path d="M468.99 92.2557C475.847 92.2557 481.386 86.7074 481.386 79.75C481.386 72.8807 475.847 67.1562 468.99 67.1562C462.132 67.1562 456.417 72.8807 456.417 79.75C456.417 86.7074 462.132 92.2557 468.99 92.2557ZM481.474 99.0369C477.869 101.415 473.561 102.736 468.99 102.736C456.33 102.736 446.131 92.5199 446.131 79.75C446.131 67.0682 456.33 56.8523 468.99 56.8523C481.65 56.8523 491.848 67.0682 491.848 79.75V97.5398C491.848 100.358 489.386 102.736 486.397 102.736C484.111 102.736 482.089 101.151 481.474 99.0369Z" fill="#BB0000"/>
<path d="M499.391 77.5483C499.391 66.1875 508.622 56.7642 520.051 56.7642C522.865 56.7642 525.238 59.142 525.238 61.9602C525.238 64.8665 522.865 67.1562 520.051 67.1562C514.249 67.1562 509.765 71.8239 509.765 77.5483V97.6278C509.765 100.71 507.479 103 504.578 103C501.677 103 499.391 100.71 499.391 97.6278V77.5483Z" fill="#BB0000"/>
<path d="M528.153 77.5483C528.153 66.1875 537.384 56.7642 548.813 56.7642C551.626 56.7642 554 59.142 554 61.9602C554 64.8665 551.626 67.1562 548.813 67.1562C543.01 67.1562 538.527 71.8239 538.527 77.5483V97.6278C538.527 100.71 536.241 103 533.34 103C530.438 103 528.153 100.71 528.153 97.6278V77.5483Z" fill="#BB0000"/>
<defs>
<filter id="filter0_d_4_2" x="44.7013" y="43.7" width="55.9333" height="74.6" filterUnits="userSpaceOnUse" color-interpolation-filters="sRGB">
<feFlood flood-opacity="0" result="BackgroundImageFix"/>
<feColorMatrix in="SourceAlpha" type="matrix" values="0 0 0 0 0 0 0 0 0 0 0 0 0 0 0 0 0 0 127 0" result="hardAlpha"/>
<feOffset dx="1" dy="5"/>
<feGaussianBlur stdDeviation="2.9"/>
<feComposite in2="hardAlpha" operator="out"/>
<feColorMatrix type="matrix" values="0 0 0 0 0.753681 0 0 0 0 0.753681 0 0 0 0 0.753681 0 0 0 0.25 0"/>
<feBlend mode="normal" in2="BackgroundImageFix" result="effect1_dropShadow_4_2"/>
<feBlend mode="normal" in="SourceGraphic" in2="effect1_dropShadow_4_2" result="shape"/>
</filter>
<filter id="filter1_d_4_2" x="-44.8" y="-42.8" width="233.6" height="209.6" filterUnits="userSpaceOnUse" color-interpolation-filters="sRGB">
<feFlood flood-opacity="0" result="BackgroundImageFix"/>
<feColorMatrix in="SourceAlpha" type="matrix" values="0 0 0 0 0 0 0 0 0 0 0 0 0 0 0 0 0 0 127 0" result="hardAlpha"/>
<feOffset dy="1"/>
<feGaussianBlur stdDeviation="4.9"/>
<feComposite in2="hardAlpha" operator="out"/>
<feColorMatrix type="matrix" values="0 0 0 0 0.620549 0 0 0 0 0.620549 0 0 0 0 0.620549 0 0 0 0.25 0"/>
<feBlend mode="normal" in2="BackgroundImageFix" result="effect1_dropShadow_4_2"/>
<feBlend mode="normal" in="SourceGraphic" in2="effect1_dropShadow_4_2" result="shape"/>
</filter>
<linearGradient id="paint0_linear_4_2" x1="72" y1="-31" x2="72" y2="153" gradientUnits="userSpaceOnUse">
<stop stop-color="#FF0000"/>
<stop offset="1" stop-color="#680000"/>
</linearGradient>
<linearGradient id="paint1_linear_4_2" x1="72" y1="-31" x2="72" y2="153" gradientUnits="userSpaceOnUse">
<stop stop-color="#FF0000"/>
<stop offset="1" stop-color="#680000"/>
</linearGradient>
<linearGradient id="paint2_linear_4_2" x1="72" y1="-31" x2="72" y2="153" gradientUnits="userSpaceOnUse">
<stop stop-color="#FF0000"/>
<stop offset="1" stop-color="#680000"/>
</linearGradient>
<linearGradient id="paint3_linear_4_2" x1="72" y1="-31" x2="72" y2="153" gradientUnits="userSpaceOnUse">
<stop stop-color="#FF0000"/>
<stop offset="1" stop-color="#680000"/>
</linearGradient>
<linearGradient id="paint4_linear_4_2" x1="72" y1="-31" x2="72" y2="153" gradientUnits="userSpaceOnUse">
<stop stop-color="#FF0000"/>
<stop offset="1" stop-color="#BB0000"/>
</linearGradient>
<clipPath id="clip0_4_2">
<rect width="144" height="144" rx="72" fill="white"/>
</clipPath>
</defs>
</svg>
